#define dummy_width 58
#define dummy_height 39
static char dummy_bits[] = {
 0x00,0x00,0x06,0x00,0x00,0x00,0x00,0x00,0x00,0x80,0x1f,0x00,0x00,0x00,0x00,
 0x00,0x00,0xc0,0x7d,0x00,0x00,0x00,0x00,0x00,0x00,0xf0,0xf0,0x01,0x00,0x00,
 0x00,0x00,0x00,0x38,0xc0,0x03,0x00,0x00,0x00,0x00,0x00,0x1c,0x01,0x0f,0x00,
 0x00,0x00,0x00,0x00,0x0f,0x00,0x3c,0x00,0x00,0x00,0x00,0x80,0x03,0x10,0xf8,
 0x00,0x00,0x00,0x00,0xe0,0x41,0x04,0xe0,0x01,0x00,0x00,0x00,0x70,0x00,0x00,
 0x82,0x07,0x00,0x00,0x00,0x38,0x04,0x00,0x00,0x1e,0x00,0x00,0x00,0x1e,0x80,
 0x40,0x00,0x7c,0x00,0x00,0x00,0x06,0x20,0x10,0x08,0xf1,0x01,0x00,0x00,0x8f,
 0x00,0x00,0x00,0xc0,0x03,0x00,0x00,0x36,0x08,0x00,0x40,0x00,0x0f,0x00,0x00,
 0xef,0x00,0x04,0x02,0x00,0x3e,0x00,0x00,0x9e,0x01,0x00,0x00,0x00,0x78,0x00,
 0x00,0x78,0x86,0x80,0x00,0x04,0xe0,0x01,0x00,0xe0,0x1d,0x00,0x40,0x40,0x80,
 0x07,0x00,0xc0,0x67,0x00,0x00,0x00,0x00,0x1f,0x00,0x00,0xdf,0x10,0x08,0x00,
 0x00,0x7c,0x00,0x00,0x3c,0x07,0x00,0x10,0x00,0xf0,0x00,0x00,0xf0,0x04,0x00,
 0x04,0x08,0xc0,0x03,0x00,0xc0,0x3b,0x00,0x01,0x80,0x80,0x03,0x00,0x80,0x67,
 0x00,0x00,0x02,0x00,0x03,0x00,0x00,0x9e,0x03,0x00,0x00,0x80,0x03,0x00,0x00,
 0x78,0x46,0x00,0x00,0x20,0x03,0x00,0x00,0xf0,0x19,0x00,0x00,0x90,0x03,0x00,
 0x00,0xc0,0x37,0x00,0x00,0xe4,0x03,0x00,0x00,0x00,0xcf,0x00,0x40,0xe8,0x00,
 0x00,0x00,0x00,0x3c,0x03,0x11,0x7a,0x00,0x00,0x00,0x00,0xf8,0x0e,0x00,0x1f,
 0x00,0x00,0x00,0x00,0xe0,0x19,0xc0,0x07,0x01,0x00,0x00,0x00,0x80,0x67,0xf0,
 0x21,0x00,0x00,0x00,0x00,0x00,0xde,0x7c,0x08,0x00,0x00,0x00,0x00,0x00,0xbc,
 0x1f,0x02,0x00,0x00,0x00,0x00,0x00,0xf0,0x97,0x00,0x00,0x00,0x00,0x00,0x00,
 0xc0,0x03,0x00,0x00,0x00,0x00,0x00,0x00,0x00,0x01,0x00,0x00 };
